# xmcd
#
# Track frame offsets:
#	150
#	27936
#	53478
#	84181
#	112844
#	126508
#	154354
#	176611
#	198728
#	224303
#
# Disc length: 3519 seconds
# Revision: 0
# Processed by: cddbd v1.5.2PL0 Copyright (c) Steve Scherf et al.
# Submitted via: dBpowerAMP V12.0
#
DISCID=840dbd0a
DTITLE=Various Artist - Legends and Lions, Vol. 3: Blues
DYEAR=2006
DGENRE=Blues
TTITLE0=Terry Gibbs - St. Louis Blues
TTITLE1=Sean Jones - Blues For Matt B
TTITLE2=Gerald Wilson Orchestra - Equinox
TTITLE3=Ralph Penland - Willow Weep For Me
TTITLE4=Oscar Brown, Jr. - But I Was Cool
TTITLE5=Paul Kreibich - River's Invitation
TTITLE6=Ilona Knopfler - Unchain My Heart
TTITLE7=Terry Gibbs - Jumping With Symphony Sid
TTITLE8=Eugene Maslov - Groove Merchant
TTITLE9=Gerald Wilson Orchestra - Blues For Manhattan (The Diminished Triangle)
EXTD=
EXTT0=
EXTT1=
EXTT2=
EXTT3=
EXTT4=
EXTT5=
EXTT6=
EXTT7=
EXTT8=
EXTT9=
PLAYORDER=
